<?xml version="1.0" encoding="UTF-8" standalone="no"?>
<!DOCTYPE svg PUBLIC "-//W3C//DTD SVG 1.1//EN" "http://www.w3.org/Graphics/SVG/1.1/DTD/svg11.dtd">
<svg version="1.1" xmlns="http://www.w3.org/2000/svg" xmlns:xlink="http://www.w3.org/1999/xlink" preserveAspectRatio="xMidYMid meet" viewBox="-1 4.915989999999999 223.422 65.17701000000002" width="219.42" height="61.18"><defs><path d="M188.08 67.09C172.4 67.09 47.02 67.09 31.35 67.09C14.03 67.09 0 53.4 0 36.5C0 19.61 14.03 5.92 31.35 5.92C47.02 5.92 172.4 5.92 188.08 5.92C205.39 5.92 219.42 19.61 219.42 36.5C219.42 53.4 205.39 67.09 188.08 67.09Z" id="e35PpNPWis"></path><path d="M63.53 42.96L63.87 35.81L64.08 29.3C64.08 27.99 64.08 27.25 64.08 27.11C66.74 27.13 69.51 27.14 72.4 27.14C72.6 27.14 73.64 27.13 75.5 27.12L80.16 27.11L79.97 30.59C79.05 30.55 78.54 30.52 78.43 30.51C78.01 30.49 77.43 30.48 76.69 30.47C75.95 30.45 75.19 30.45 74.41 30.45C72.74 30.45 71.65 30.45 71.16 30.46C70.67 30.46 69.93 30.48 68.94 30.51C68.92 31.09 68.71 35.67 68.68 36.24C70.15 36.28 71.64 36.29 73.14 36.29C74.17 36.29 75.91 36.26 78.37 36.2C78.28 37.17 78.21 38.35 78.14 39.71C75.27 39.68 73.62 39.67 73.21 39.67C71.94 39.67 70.35 39.7 68.46 39.76C68.44 40.17 68.36 42.18 68.2 45.8C69.26 45.81 69.86 45.81 69.97 45.82C70.49 45.82 71.68 45.81 73.53 45.78C73.76 45.78 74.93 45.76 77.03 45.72C78.44 45.65 79.22 45.61 79.37 45.61C79.26 46.86 79.19 48.03 79.15 49.14C76.35 49.12 73.82 49.11 71.58 49.11C71.22 49.11 69.45 49.12 66.26 49.13L63.07 49.14L63.53 42.96Z" id="a2G3LEmxG"></path><path d="M83.59 39.34C83.82 34.62 83.96 30.54 84.01 27.11C85.13 27.13 85.93 27.14 86.41 27.14C87.04 27.14 87.82 27.13 88.73 27.11C88.71 27.5 88.58 29.46 88.35 33L87.79 46.14C87.75 47.94 87.73 48.94 87.72 49.14C86.84 49.12 86.09 49.11 85.48 49.11C85.27 49.11 84.45 49.12 83 49.14C83.16 47.32 83.36 44.06 83.59 39.34Z" id="aeRFwhYZx"></path><path d="M89.27 53.07C90.3 53.55 91.27 53.79 92.19 53.79C92.47 53.79 92.75 53.76 93.04 53.69C93.33 53.62 93.6 53.52 93.85 53.39C94.01 53.3 94.17 53.18 94.34 53.02C94.51 52.86 94.74 52.56 95.03 52.13C95.32 51.7 95.57 51.28 95.79 50.86C95.96 50.5 96.14 50.05 96.32 49.5C96.09 48.85 94.98 45.58 92.96 39.69C91.49 35.51 90.67 33.19 90.51 32.73C91.64 32.75 92.45 32.76 92.94 32.76C93.51 32.76 94.26 32.75 95.19 32.73C95.41 33.62 95.62 34.4 95.82 35.05C95.97 35.56 97.2 39.62 97.35 40.12C97.83 41.68 98.17 42.86 98.37 43.64C98.5 44.16 98.65 44.84 98.82 45.69C99.14 44.71 99.42 43.92 99.66 43.3C100.08 42.18 100.67 40.69 101.42 38.82C101.58 38.43 102.83 35.34 102.98 34.96C103.26 34.27 103.55 33.53 103.84 32.73C104.81 32.75 105.54 32.76 106.05 32.76C106.51 32.76 107.29 32.75 108.38 32.73C107.96 33.66 105.89 38.3 102.16 46.65C100.54 50.34 99.65 52.39 99.47 52.8C99.09 53.59 98.73 54.21 98.38 54.65C98.1 55.03 97.8 55.35 97.46 55.62C97.14 55.88 96.8 56.09 96.43 56.26C95.97 56.48 95.47 56.65 94.93 56.78C94.32 56.91 93.7 56.97 93.07 56.97C92.72 56.97 92.22 56.94 91.59 56.88C90.95 56.81 90.34 56.7 89.73 56.55C89.54 54.94 89.38 53.78 89.27 53.07Z" id="b1EfQ88Y20"></path><path d="M119.03 49.06C118.13 49.27 117.42 49.4 116.9 49.45C116.39 49.5 115.9 49.53 115.45 49.53C114.65 49.53 113.94 49.45 113.31 49.3C112.68 49.15 112.16 48.89 111.75 48.5C111.34 48.12 111.07 47.68 110.92 47.16C110.78 46.65 110.7 46.12 110.7 45.57C110.7 45.43 110.71 45.25 110.72 45.01C110.73 44.77 110.77 44.01 110.85 42.72C110.87 42.27 111 40.03 111.22 36C109.82 36 109.05 36 108.89 36C108.95 35.36 109 34.32 109.04 32.89C109.28 32.89 111.23 32.89 111.47 32.89C111.54 32.26 111.6 31.2 111.66 29.71C111.85 29.67 113.38 29.37 113.57 29.34C113.97 29.26 114.74 29.08 115.88 28.8C115.81 30.26 115.76 31.62 115.75 32.89C116.16 32.89 119.44 32.89 119.86 32.89C119.78 34.34 119.74 35.38 119.74 36C119.33 36 116.04 36 115.63 36C115.4 40.38 115.29 42.92 115.29 43.61C115.29 44.27 115.36 44.79 115.51 45.16C115.65 45.52 115.88 45.79 116.21 45.95C116.53 46.11 116.87 46.19 117.24 46.19C117.51 46.19 117.79 46.17 118.09 46.12C118.38 46.08 118.9 45.96 119.65 45.77C119.52 46.36 119.31 47.46 119.03 49.06Z" id="c2IyK6hdj"></path><path d="M122.31 41.48C122.39 38.8 122.43 37.32 122.44 37.02C122.46 36.1 122.47 35.19 122.47 34.26C122.47 34.1 122.46 33.59 122.44 32.73C123.44 32.75 124.18 32.76 124.65 32.76C125.2 32.76 125.92 32.75 126.83 32.73C126.82 32.95 126.76 34.77 126.75 35C127.16 34.42 127.51 33.99 127.8 33.7C128.09 33.42 128.41 33.17 128.78 32.97C129.14 32.76 129.54 32.61 129.98 32.5C130.42 32.39 130.87 32.34 131.33 32.34C131.76 32.34 132.21 32.39 132.66 32.5C132.66 33.5 132.71 34.77 132.8 36.31C132.17 36.14 131.59 36.05 131.07 36.05C130.45 36.05 129.9 36.15 129.42 36.34C128.94 36.52 128.51 36.81 128.13 37.19C127.75 37.57 127.43 38.04 127.18 38.6C126.98 39.05 126.83 39.64 126.73 40.36C126.65 40.92 126.58 41.88 126.52 43.24C126.46 44.59 126.43 45.93 126.43 47.24C126.43 47.74 126.45 48.38 126.48 49.14C125.66 49.12 124.91 49.11 124.24 49.11C123.56 49.11 122.77 49.12 121.84 49.14C121.9 48.12 122.06 45.56 122.31 41.48Z" id="a140e5qJv4"></path><path d="M136.22 34.7C136.25 34.38 136.32 33.91 136.42 33.28C137.88 32.93 139.17 32.69 140.29 32.55C141.41 32.41 142.49 32.34 143.54 32.34C144.72 32.34 145.81 32.48 146.8 32.75C147.79 33.03 148.56 33.46 149.12 34.07C149.68 34.67 149.96 35.53 149.96 36.67C149.96 37.28 149.87 38.84 149.7 41.35C149.53 43.87 149.43 46.46 149.4 49.14C148.58 49.12 147.83 49.11 147.14 49.11C146.48 49.11 145.71 49.12 144.83 49.14C144.97 47.84 145.08 46.33 145.17 44.62C145.19 44.22 145.36 41 145.38 40.6C144.97 40.87 144.66 41.06 144.44 41.17C144.23 41.27 143.99 41.37 143.72 41.47C143.45 41.56 142.97 41.7 142.29 41.89C141.62 42.07 141.07 42.24 140.66 42.38C140.25 42.52 139.88 42.68 139.56 42.85C139.23 43.03 138.95 43.23 138.72 43.45C138.5 43.67 138.33 43.9 138.23 44.15C138.13 44.39 138.08 44.65 138.08 44.93C138.08 45.38 138.21 45.77 138.47 46.1C138.74 46.43 139.07 46.66 139.47 46.79C139.86 46.91 140.33 46.98 140.87 46.98C141.22 46.98 141.58 46.95 141.96 46.9C142.34 46.84 142.86 46.71 143.5 46.49C143.28 47.11 143.01 48.02 142.71 49.24C141.95 49.37 141.34 49.45 140.89 49.48C140.44 49.51 140.02 49.53 139.63 49.53C138.27 49.53 137.16 49.35 136.29 48.98C135.42 48.61 134.77 48.03 134.36 47.24C133.94 46.44 133.74 45.64 133.74 44.83C133.74 44.37 133.82 43.91 133.98 43.46C134.14 43.01 134.38 42.59 134.69 42.22C135 41.84 135.41 41.48 135.9 41.13C136.4 40.78 137.11 40.44 138.05 40.11C138.98 39.78 140.22 39.45 141.76 39.12C142.17 39.03 142.6 38.93 143.04 38.8C143.48 38.68 143.83 38.56 144.1 38.44C144.36 38.32 144.59 38.17 144.78 37.98C144.98 37.79 145.12 37.6 145.21 37.39C145.3 37.19 145.35 36.98 145.35 36.76C145.35 36.34 145.21 35.99 144.94 35.7C144.66 35.41 144.31 35.2 143.87 35.09C143.44 34.98 142.95 34.92 142.43 34.92C140.47 34.92 138.3 35.39 135.93 36.33C136.08 35.55 136.18 35.01 136.22 34.7Z" id="aeR9LugBW"></path><path d="M178.95 36.58C180.73 36.58 182.21 36.57 183.39 36.55C183.11 40.16 182.91 44.16 182.79 48.56C181 48.92 179.39 49.17 177.94 49.31C176.5 49.46 175.28 49.53 174.26 49.53C172.37 49.53 170.62 49.33 169 48.93C167.38 48.53 166.01 47.89 164.89 46.99C163.77 46.1 162.92 44.93 162.33 43.47C161.74 42.01 161.45 40.47 161.45 38.84C161.45 37.46 161.67 36.12 162.1 34.82C162.54 33.53 163.19 32.35 164.04 31.27C164.9 30.2 165.93 29.3 167.14 28.59C168.35 27.87 169.64 27.38 171 27.12C172.36 26.85 173.8 26.72 175.32 26.72C177.4 26.72 179.8 27 182.52 27.56C182.53 28.78 182.59 30.06 182.69 31.4C180.15 30.55 177.86 30.13 175.8 30.13C174.48 30.13 173.23 30.31 172.05 30.69C170.87 31.07 169.85 31.65 169 32.44C168.14 33.23 167.49 34.21 167.04 35.38C166.6 36.55 166.37 37.76 166.37 39C166.37 40.39 166.63 41.63 167.14 42.73C167.65 43.82 168.51 44.67 169.72 45.27C170.92 45.87 172.3 46.17 173.86 46.17C174.43 46.17 175.11 46.12 175.88 46.02C176.66 45.92 177.46 45.74 178.3 45.5C178.32 45.12 178.41 43.23 178.57 39.83C177.8 39.82 177.38 39.81 177.29 39.81C176.57 39.81 175.65 39.83 174.54 39.86C174.64 38.42 174.69 37.31 174.69 36.55C176.17 36.57 177.59 36.58 178.95 36.58Z" id="aXh2ImIgO"></path><path d="M204.6 48.95C203.37 49.16 202.25 49.31 201.23 49.4C200.21 49.49 199.33 49.53 198.6 49.53C196.98 49.53 195.44 49.3 193.97 48.85C192.5 48.4 191.18 47.69 190 46.71C188.82 45.74 187.97 44.56 187.44 43.17C186.91 41.78 186.65 40.26 186.65 38.62C186.65 36.83 186.97 35.18 187.6 33.66C188.24 32.14 189.15 30.86 190.34 29.82C191.53 28.77 192.94 28 194.56 27.49C196.18 26.97 197.88 26.72 199.64 26.72C201.39 26.72 203.29 26.92 205.36 27.32C205.39 28.27 205.42 28.95 205.46 29.35C205.47 29.52 205.56 30.9 205.57 31.08C204.35 30.75 203.34 30.53 202.53 30.41C201.73 30.3 200.96 30.24 200.23 30.24C199.07 30.24 197.97 30.41 196.91 30.76C195.85 31.11 194.91 31.67 194.1 32.43C193.29 33.2 192.66 34.12 192.23 35.2C191.79 36.28 191.57 37.41 191.57 38.58C191.57 39.98 191.84 41.24 192.38 42.34C192.92 43.45 193.78 44.35 194.97 45.04C196.16 45.73 197.63 46.07 199.39 46.07C201.01 46.07 202.95 45.75 205.21 45.11C204.98 46.37 204.77 47.65 204.6 48.95Z" id="c108Jwzm0X"></path><path d="M54.12 60.53L58.46 55.82L82.35 55.82L78.01 60.53L54.12 60.53Z" id="h1iLvsoGBJ"></path><path d="M103.53 60.53L108.87 55.82L199.59 55.82L194.26 60.53L103.53 60.53Z" id="a1ptUkimem"></path><path d="M173.19 15.33C173.19 12.73 171.08 10.62 168.48 10.62C165.88 10.62 163.77 12.73 163.77 15.33C163.77 17.93 165.88 20.03 168.48 20.03C171.08 20.03 173.19 17.93 173.19 15.33Z" id="d93DQIU1q"></path><path d="M187.31 15.33C187.31 12.73 185.2 10.62 182.6 10.62C180 10.62 177.89 12.73 177.89 15.33C177.89 17.93 180 20.03 182.6 20.03C185.2 20.03 187.31 17.93 187.31 15.33Z" id="c1tW8lpWiE"></path><path d="M201.42 15.33C201.42 12.73 199.32 10.62 196.72 10.62C194.12 10.62 192.01 12.73 192.01 15.33C192.01 17.93 194.12 20.03 196.72 20.03C199.32 20.03 201.42 17.93 201.42 15.33Z" id="cYfbqSQgk"></path><path d="M152.53 15.33L63.53 15.33" id="e1sUYUIei7"></path><path d="M50.83 29.53C46.94 29.53 15.75 29.53 11.86 29.53C10.88 29.53 10.08 28.66 10.08 27.6C10.08 26.53 10.88 25.66 11.86 25.66C15.75 25.66 46.94 25.66 50.83 25.66C51.81 25.66 52.61 26.53 52.61 27.6C52.61 28.66 51.81 29.53 50.83 29.53Z" id="a1I9evOfyx"></path><path d="M54.38 41.13C49.77 41.13 12.92 41.13 8.31 41.13C7.16 41.13 6.22 40.26 6.22 39.19C6.22 38.13 7.16 37.26 8.31 37.26C12.92 37.26 49.77 37.26 54.38 37.26C55.53 37.26 56.47 38.13 56.47 39.19C56.47 40.26 55.53 41.13 54.38 41.13Z" id="aODLPley"></path><path d="M33.14 17.23C32.39 16.48 26.38 10.47 25.63 9.71C25.44 9.53 25.59 9.07 25.97 8.69C26.35 8.31 26.8 8.16 26.99 8.35C27.75 9.1 33.76 15.11 34.51 15.87C34.7 16.06 34.55 16.51 34.17 16.89C33.79 17.27 33.33 17.42 33.14 17.23Z" id="a6iVOEvCN"></path><path d="M37.06 9.72C36.31 10.47 30.3 16.48 29.55 17.23C29.36 17.42 28.9 17.27 28.52 16.89C28.14 16.51 27.99 16.06 28.18 15.87C28.93 15.11 34.94 9.1 35.7 8.35C35.89 8.16 36.34 8.31 36.72 8.69C37.1 9.07 37.25 9.53 37.06 9.72Z" id="bmUCPxq4W"></path><path d="M50.83 52.72C46.94 52.72 15.75 52.72 11.86 52.72C10.88 52.72 10.08 51.86 10.08 50.79C10.08 49.72 10.88 48.86 11.86 48.86C15.75 48.86 46.94 48.86 50.83 48.86C51.81 48.86 52.61 49.72 52.61 50.79C52.61 51.86 51.81 52.72 50.83 52.72Z" id="a44BdXuppp"></path><path d="M39.08 17.93C39.08 13.66 35.62 10.2 31.35 10.2C27.07 10.2 23.61 13.66 23.61 17.93C23.61 22.2 27.07 25.66 31.35 25.66C35.62 25.66 39.08 22.2 39.08 17.93Z" id="berzpFk5S"></path><path d="M54.54 39.19C54.54 26.38 44.15 16 31.34 16C18.54 16 8.15 26.38 8.15 39.19C8.15 52 18.54 62.39 31.34 62.39C44.15 62.39 54.54 52 54.54 39.19Z" id="a8Ux7Tx05M"></path><path d="M50.67 39.19C50.67 28.52 42.02 19.86 31.35 19.86C20.67 19.86 12.02 28.52 12.02 39.19C12.02 49.87 20.67 58.52 31.35 58.52C42.02 58.52 50.67 49.87 50.67 39.19Z" id="brc68GYEw"></path><path d="M31.35 19.86L31.35 60.45" id="b55C27gLSk"></path><path d="M35.21 25.66C35.21 23.53 33.48 21.8 31.35 21.8C29.21 21.8 27.48 23.53 27.48 25.66C27.48 27.8 29.21 29.53 31.35 29.53C33.48 29.53 35.21 27.8 35.21 25.66Z" id="ab8xqVcED"></path><path d="M41.01 39.19C41.01 37.06 39.28 35.33 37.14 35.33C35.01 35.33 33.28 37.06 33.28 39.19C33.28 41.33 35.01 43.06 37.14 43.06C39.28 43.06 41.01 41.33 41.01 39.19Z" id="cJxmO4hv"></path><path d="M29.41 39.19C29.41 37.06 27.68 35.33 25.55 35.33C23.41 35.33 21.68 37.06 21.68 39.19C21.68 41.33 23.41 43.06 25.55 43.06C27.68 43.06 29.41 41.33 29.41 39.19Z" id="i7E8VcoMd"></path><path d="M19.75 29.53C19.75 27.39 18.02 25.66 15.88 25.66C13.75 25.66 12.02 27.39 12.02 29.53C12.02 31.66 13.75 33.39 15.88 33.39C18.02 33.39 19.75 31.66 19.75 29.53Z" id="ih4Rosj6S"></path><path d="M50.67 29.53C50.67 27.39 48.94 25.66 46.81 25.66C44.67 25.66 42.94 27.39 42.94 29.53C42.94 31.66 44.67 33.39 46.81 33.39C48.94 33.39 50.67 31.66 50.67 29.53Z" id="b10xxR23DR"></path><path d="M23.61 50.79C23.61 48.66 21.88 46.93 19.75 46.93C17.61 46.93 15.88 48.66 15.88 50.79C15.88 52.92 17.61 54.66 19.75 54.66C21.88 54.66 23.61 52.92 23.61 50.79Z" id="aB2U8bmsT"></path><path d="M46.81 50.79C46.81 48.66 45.08 46.93 42.94 46.93C40.81 46.93 39.08 48.66 39.08 50.79C39.08 52.92 40.81 54.66 42.94 54.66C45.08 54.66 46.81 52.92 46.81 50.79Z" id="a4m2nmkvkW"></path><path d="M188.08 67.09C172.4 67.09 47.02 67.09 31.35 67.09C14.03 67.09 0 53.4 0 36.5C0 19.61 14.03 5.92 31.35 5.92C47.02 5.92 172.4 5.92 188.08 5.92C205.39 5.92 219.42 19.61 219.42 36.5C219.42 53.4 205.39 67.09 188.08 67.09Z" id="c20cA4uFi"></path><path d="M65.25 42.65L65.57 35.79L65.77 29.55C65.77 28.28 65.77 27.58 65.77 27.44C68.33 27.46 70.98 27.47 73.75 27.47C73.95 27.47 74.94 27.46 76.73 27.46L81.2 27.44L81.02 30.79C80.13 30.74 79.64 30.71 79.55 30.71C79.14 30.69 78.58 30.67 77.87 30.66C77.16 30.65 76.43 30.65 75.69 30.65C74.08 30.65 73.04 30.65 72.57 30.65C72.1 30.66 71.39 30.68 70.44 30.71C70.41 31.26 70.21 35.66 70.19 36.21C71.6 36.24 73.03 36.25 74.46 36.25C75.46 36.25 77.13 36.22 79.48 36.16C79.4 37.1 79.33 38.22 79.27 39.53C76.51 39.5 74.93 39.49 74.53 39.49C73.31 39.49 71.79 39.52 69.98 39.58C69.96 39.97 69.88 41.9 69.73 45.38C70.75 45.38 71.32 45.39 71.43 45.39C71.93 45.39 73.06 45.38 74.84 45.36C75.06 45.36 76.18 45.34 78.2 45.3C79.55 45.23 80.3 45.2 80.45 45.19C80.35 46.39 80.27 47.52 80.23 48.58C77.55 48.56 75.13 48.55 72.97 48.55C72.63 48.55 70.93 48.56 67.87 48.57L64.8 48.58L65.25 42.65Z" id="c1yPu6NiYo"></path><path d="M84.49 39.17C84.71 34.65 84.85 30.74 84.9 27.44C85.97 27.46 86.74 27.47 87.2 27.47C87.8 27.47 88.55 27.46 89.43 27.44C89.4 27.82 89.28 29.7 89.06 33.1L88.52 45.7C88.48 47.43 88.46 48.39 88.46 48.58C87.61 48.56 86.89 48.55 86.3 48.55C86.11 48.55 85.31 48.56 83.93 48.58C84.08 46.84 84.27 43.7 84.49 39.17Z" id="a2uCN3DdE4"></path><path d="M89.94 52.35C90.93 52.81 91.87 53.04 92.74 53.04C93.01 53.04 93.29 53.01 93.56 52.94C93.84 52.88 94.1 52.78 94.34 52.66C94.49 52.58 94.65 52.46 94.81 52.3C94.97 52.15 95.19 51.86 95.47 51.45C95.75 51.04 95.99 50.63 96.2 50.23C96.36 49.88 96.53 49.45 96.71 48.93C96.49 48.3 95.42 45.16 93.48 39.51C92.07 35.5 91.29 33.28 91.13 32.83C92.21 32.85 92.99 32.86 93.47 32.86C94.02 32.86 94.73 32.85 95.62 32.83C95.84 33.69 96.04 34.43 96.23 35.06C96.37 35.55 97.55 39.44 97.7 39.92C98.15 41.42 98.48 42.55 98.68 43.3C98.8 43.8 98.94 44.45 99.11 45.27C99.42 44.33 99.69 43.57 99.91 42.98C100.32 41.9 100.88 40.47 101.6 38.67C101.75 38.3 102.95 35.34 103.1 34.97C103.37 34.31 103.64 33.6 103.92 32.83C104.85 32.85 105.56 32.86 106.04 32.86C106.49 32.86 107.23 32.85 108.28 32.83C107.88 33.72 105.89 38.17 102.31 46.19C100.76 49.73 99.9 51.69 99.73 52.09C99.37 52.85 99.02 53.44 98.69 53.87C98.42 54.22 98.13 54.54 97.81 54.79C97.5 55.04 97.17 55.25 96.82 55.41C96.37 55.62 95.89 55.79 95.38 55.91C94.79 56.03 94.19 56.1 93.59 56.1C93.25 56.1 92.78 56.06 92.17 56C91.56 55.94 90.97 55.84 90.39 55.69C90.2 54.14 90.05 53.03 89.94 52.35Z" id="mU5x9spFO"></path><path d="M118.5 48.51C117.63 48.7 116.95 48.83 116.46 48.88C115.96 48.93 115.5 48.95 115.06 48.95C114.3 48.95 113.61 48.88 113.01 48.74C112.4 48.59 111.91 48.34 111.52 47.97C111.12 47.6 110.86 47.18 110.72 46.68C110.58 46.19 110.51 45.69 110.51 45.16C110.51 45.02 110.51 44.85 110.52 44.62C110.53 44.39 110.57 43.66 110.65 42.42C110.67 41.99 110.79 39.84 111 35.98C109.66 35.98 108.92 35.98 108.77 35.98C108.82 35.35 108.87 34.36 108.91 32.99C109.14 32.99 111.01 32.99 111.24 32.99C111.31 32.39 111.37 31.37 111.43 29.94C111.61 29.9 113.08 29.61 113.26 29.58C113.64 29.51 114.38 29.34 115.48 29.07C115.41 30.46 115.36 31.77 115.35 32.99C115.75 32.99 118.9 32.99 119.29 32.99C119.22 34.38 119.18 35.38 119.18 35.98C118.79 35.98 115.63 35.98 115.23 35.98C115.02 40.18 114.91 42.61 114.91 43.27C114.91 43.91 114.98 44.41 115.12 44.76C115.26 45.11 115.48 45.36 115.79 45.52C116.1 45.67 116.43 45.75 116.78 45.75C117.04 45.75 117.31 45.73 117.6 45.69C117.88 45.65 118.38 45.53 119.09 45.35C118.96 45.91 118.77 46.97 118.5 48.51Z" id="a7m9GEIQIt"></path><path d="M121.64 41.23C121.72 38.66 121.76 37.24 121.77 36.95C121.79 36.07 121.8 35.19 121.8 34.3C121.8 34.15 121.79 33.66 121.77 32.83C122.73 32.85 123.43 32.86 123.89 32.86C124.42 32.86 125.11 32.85 125.98 32.83C125.97 33.05 125.91 34.8 125.91 35.02C126.3 34.46 126.63 34.04 126.91 33.77C127.19 33.49 127.5 33.26 127.85 33.06C128.19 32.87 128.58 32.72 129 32.62C129.43 32.51 129.86 32.46 130.3 32.46C130.72 32.46 131.14 32.51 131.57 32.62C131.57 33.58 131.62 34.79 131.71 36.27C131.1 36.11 130.55 36.02 130.06 36.02C129.46 36.02 128.93 36.11 128.47 36.3C128.01 36.48 127.59 36.75 127.23 37.12C126.86 37.48 126.56 37.93 126.32 38.47C126.13 38.91 125.98 39.47 125.89 40.16C125.81 40.7 125.74 41.62 125.69 42.92C125.63 44.22 125.6 45.5 125.6 46.76C125.6 47.24 125.62 47.85 125.65 48.58C124.86 48.56 124.14 48.56 123.49 48.56C122.85 48.55 122.09 48.56 121.2 48.58C121.25 47.6 121.4 45.15 121.64 41.23Z" id="c13LGmO7to"></path><path d="M134.99 34.72C135.03 34.42 135.09 33.97 135.18 33.36C136.59 33.03 137.82 32.8 138.9 32.66C139.97 32.53 141.01 32.46 142.01 32.46C143.15 32.46 144.19 32.59 145.14 32.86C146.09 33.12 146.83 33.54 147.37 34.12C147.91 34.7 148.18 35.53 148.18 36.61C148.18 37.2 148.09 38.7 147.93 41.11C147.77 43.52 147.67 46.01 147.64 48.58C146.85 48.56 146.13 48.55 145.47 48.55C144.84 48.55 144.1 48.56 143.25 48.58C143.39 47.33 143.5 45.89 143.58 44.25C143.6 43.86 143.76 40.78 143.78 40.39C143.39 40.65 143.09 40.83 142.88 40.93C142.68 41.04 142.45 41.13 142.19 41.22C141.93 41.31 141.47 41.44 140.82 41.62C140.17 41.8 139.65 41.96 139.26 42.09C138.86 42.23 138.51 42.38 138.2 42.55C137.88 42.72 137.61 42.91 137.4 43.12C137.18 43.34 137.02 43.56 136.92 43.79C136.82 44.02 136.78 44.27 136.78 44.54C136.78 44.97 136.9 45.35 137.16 45.66C137.41 45.98 137.73 46.2 138.11 46.32C138.49 46.45 138.94 46.51 139.46 46.51C139.79 46.51 140.14 46.48 140.5 46.43C140.87 46.38 141.36 46.25 141.98 46.04C141.76 46.63 141.51 47.51 141.22 48.68C140.49 48.8 139.91 48.88 139.47 48.91C139.04 48.94 138.63 48.96 138.26 48.96C136.96 48.96 135.89 48.78 135.06 48.43C134.22 48.08 133.6 47.52 133.21 46.76C132.81 45.99 132.61 45.22 132.61 44.45C132.61 44.01 132.69 43.57 132.84 43.13C132.99 42.7 133.22 42.3 133.52 41.94C133.82 41.58 134.21 41.23 134.69 40.89C135.16 40.56 135.85 40.23 136.75 39.92C137.65 39.6 138.83 39.28 140.31 38.97C140.7 38.88 141.11 38.78 141.54 38.66C141.96 38.55 142.3 38.43 142.55 38.31C142.81 38.2 143.02 38.05 143.21 37.87C143.4 37.69 143.53 37.51 143.62 37.31C143.71 37.11 143.75 36.91 143.75 36.71C143.75 36.3 143.62 35.96 143.36 35.68C143.1 35.41 142.75 35.21 142.34 35.1C141.92 34.99 141.45 34.94 140.95 34.94C139.07 34.94 136.99 35.39 134.72 36.28C134.86 35.54 134.95 35.02 134.99 34.72Z" id="b1kcK5G3cf"></path><path d="M176 36.53C177.7 36.53 179.12 36.52 180.25 36.5C179.98 39.96 179.79 43.8 179.67 48.02C177.96 48.37 176.41 48.61 175.03 48.75C173.65 48.89 172.47 48.95 171.5 48.95C169.68 48.95 168 48.77 166.44 48.38C164.89 48 163.57 47.38 162.5 46.52C161.43 45.67 160.61 44.54 160.05 43.14C159.48 41.74 159.2 40.26 159.2 38.7C159.2 37.37 159.41 36.08 159.83 34.85C160.25 33.61 160.87 32.47 161.69 31.44C162.51 30.41 163.5 29.55 164.66 28.86C165.82 28.17 167.06 27.7 168.36 27.45C169.67 27.2 171.05 27.07 172.51 27.07C174.51 27.07 176.81 27.34 179.42 27.88C179.42 29.05 179.48 30.28 179.59 31.56C177.15 30.75 174.94 30.34 172.97 30.34C171.7 30.34 170.5 30.52 169.37 30.88C168.24 31.24 167.26 31.8 166.44 32.56C165.62 33.32 165 34.26 164.57 35.38C164.14 36.5 163.93 37.66 163.93 38.86C163.93 40.19 164.17 41.38 164.66 42.43C165.15 43.48 165.97 44.29 167.13 44.87C168.29 45.45 169.61 45.73 171.11 45.73C171.66 45.73 172.3 45.69 173.05 45.59C173.79 45.49 174.57 45.32 175.37 45.08C175.39 44.72 175.47 42.91 175.63 39.65C174.89 39.64 174.48 39.63 174.4 39.63C173.71 39.63 172.83 39.65 171.76 39.68C171.86 38.29 171.91 37.23 171.91 36.5C173.33 36.52 174.69 36.53 176 36.53Z" id="c1hZKDFzYS"></path><path d="M200.61 48.4C199.43 48.6 198.35 48.75 197.37 48.83C196.39 48.91 195.55 48.96 194.84 48.96C193.3 48.96 191.82 48.74 190.41 48.31C189 47.87 187.73 47.19 186.6 46.25C185.46 45.32 184.65 44.18 184.14 42.85C183.63 41.52 183.38 40.07 183.38 38.49C183.38 36.77 183.69 35.19 184.29 33.73C184.91 32.27 185.78 31.04 186.92 30.04C188.06 29.04 189.41 28.3 190.97 27.8C192.53 27.31 194.16 27.07 195.85 27.07C197.52 27.07 199.35 27.26 201.33 27.64C201.36 28.56 201.39 29.21 201.43 29.59C201.44 29.76 201.52 31.08 201.53 31.25C200.37 30.94 199.4 30.73 198.62 30.61C197.85 30.5 197.11 30.44 196.41 30.44C195.3 30.44 194.24 30.61 193.22 30.95C192.21 31.28 191.31 31.82 190.53 32.55C189.75 33.28 189.15 34.17 188.73 35.21C188.31 36.24 188.11 37.33 188.11 38.45C188.11 39.79 188.36 41 188.88 42.06C189.4 43.12 190.22 43.99 191.37 44.65C192.51 45.31 193.92 45.64 195.6 45.64C197.16 45.64 199.03 45.33 201.19 44.71C200.97 45.92 200.77 47.15 200.61 48.4Z" id="b3MUlOtzZO"></path><path d="M56.21 59.51L60.38 54.99L83.31 54.99L79.14 59.51L56.21 59.51Z" id="a9N5NDkR6"></path><path d="M103.63 59.51L108.75 54.99L195.8 54.99L190.68 59.51L103.63 59.51Z" id="f84haZQc"></path><path d="M170.46 16.14C170.46 13.64 168.44 11.62 165.95 11.62C163.45 11.62 161.43 13.64 161.43 16.14C161.43 18.63 163.45 20.65 165.95 20.65C168.44 20.65 170.46 18.63 170.46 16.14Z" id="bjnw4Hcdf"></path><path d="M184.01 16.14C184.01 13.64 181.99 11.62 179.49 11.62C177 11.62 174.98 13.64 174.98 16.14C174.98 18.63 177 20.65 179.49 20.65C181.99 20.65 184.01 18.63 184.01 16.14Z" id="e2BWK8mvZv"></path><path d="M197.56 16.14C197.56 13.64 195.53 11.62 193.04 11.62C190.55 11.62 188.52 13.64 188.52 16.14C188.52 18.63 190.55 20.65 193.04 20.65C195.53 20.65 197.56 18.63 197.56 16.14Z" id="l4BeBCVRR4"></path><path d="M150.64 16.14L65.25 16.14" id="a6cDcpsi9"></path><path d="M53.06 29.76C49.32 29.76 19.4 29.76 15.66 29.76C14.72 29.76 13.96 28.93 13.96 27.91C13.96 26.89 14.72 26.05 15.66 26.05C19.4 26.05 49.32 26.05 53.06 26.05C54 26.05 54.76 26.89 54.76 27.91C54.76 28.93 54 29.76 53.06 29.76Z" id="b54gLLhb3"></path><path d="M56.46 40.89C52.04 40.89 16.68 40.89 12.26 40.89C11.15 40.89 10.25 40.06 10.25 39.04C10.25 38.01 11.15 37.18 12.26 37.18C16.68 37.18 52.04 37.18 56.46 37.18C57.57 37.18 58.47 38.01 58.47 39.04C58.47 40.06 57.57 40.89 56.46 40.89Z" id="aTJBFlf7Q"></path><path d="M36.09 17.96C35.37 17.24 29.6 11.47 28.88 10.75C28.7 10.57 28.84 10.13 29.2 9.77C29.57 9.41 30.01 9.26 30.19 9.44C30.91 10.16 36.68 15.93 37.4 16.65C37.58 16.84 37.44 17.28 37.07 17.64C36.71 18 36.27 18.15 36.09 17.96Z" id="b7MjP2u2c"></path><path d="M39.85 10.75C39.13 11.47 33.36 17.24 32.64 17.96C32.46 18.15 32.01 18 31.65 17.64C31.29 17.28 31.14 16.84 31.32 16.65C32.05 15.93 37.82 10.16 38.54 9.44C38.72 9.26 39.16 9.41 39.52 9.77C39.88 10.13 40.03 10.57 39.85 10.75Z" id="a16Cgn7roY"></path><path d="M53.06 52.02C49.32 52.02 19.4 52.02 15.66 52.02C14.72 52.02 13.96 51.19 13.96 50.16C13.96 49.14 14.72 48.31 15.66 48.31C19.4 48.31 49.32 48.31 53.06 48.31C54 48.31 54.76 49.14 54.76 50.16C54.76 51.19 54 52.02 53.06 52.02Z" id="aunQ2AvFj"></path><path d="M41.78 18.64C41.78 14.54 38.46 11.22 34.36 11.22C30.26 11.22 26.94 14.54 26.94 18.64C26.94 22.73 30.26 26.06 34.36 26.06C38.46 26.06 41.78 22.73 41.78 18.64Z" id="aQMq6vOGl"></path><path d="M56.62 39.04C56.62 26.75 46.65 16.78 34.36 16.78C22.07 16.78 12.11 26.75 12.11 39.04C12.11 51.33 22.07 61.29 34.36 61.29C46.65 61.29 56.62 51.33 56.62 39.04Z" id="ciV5DrtIu"></path><path d="M52.91 39.04C52.91 28.79 44.6 20.49 34.36 20.49C24.12 20.49 15.82 28.79 15.82 39.04C15.82 49.28 24.12 57.58 34.36 57.58C44.6 57.58 52.91 49.28 52.91 39.04Z" id="d2vtiac4n"></path><path d="M34.36 20.49L34.36 59.44" id="blyKGrg21"></path><path d="M38.07 26.05C38.07 24.01 36.41 22.34 34.36 22.34C32.31 22.34 30.65 24.01 30.65 26.05C30.65 28.1 32.31 29.76 34.36 29.76C36.41 29.76 38.07 28.1 38.07 26.05Z" id="g4pMv8LnM"></path><path d="M43.64 39.04C43.64 36.99 41.98 35.33 39.93 35.33C37.88 35.33 36.22 36.99 36.22 39.04C36.22 41.09 37.88 42.75 39.93 42.75C41.98 42.75 43.64 41.09 43.64 39.04Z" id="a1EeYgpJUF"></path><path d="M32.51 39.04C32.51 36.99 30.85 35.33 28.8 35.33C26.75 35.33 25.09 36.99 25.09 39.04C25.09 41.09 26.75 42.75 28.8 42.75C30.85 42.75 32.51 41.09 32.51 39.04Z" id="b4mEKy99R7"></path><path d="M23.23 29.76C23.23 27.72 21.57 26.06 19.53 26.06C17.48 26.06 15.82 27.72 15.82 29.76C15.82 31.81 17.48 33.47 19.53 33.47C21.57 33.47 23.23 31.81 23.23 29.76Z" id="c1RSuvGgz"></path><path d="M52.91 29.76C52.91 27.72 51.25 26.06 49.2 26.06C47.15 26.06 45.49 27.72 45.49 29.76C45.49 31.81 47.15 33.47 49.2 33.47C51.25 33.47 52.91 31.81 52.91 29.76Z" id="c399nl7MvJ"></path><path d="M26.94 50.16C26.94 48.12 25.28 46.46 23.24 46.46C21.19 46.46 19.53 48.12 19.53 50.16C19.53 52.21 21.19 53.87 23.24 53.87C25.28 53.87 26.94 52.21 26.94 50.16Z" id="a4qD4Cgf8"></path><path d="M49.2 50.16C49.2 48.12 47.54 46.46 45.49 46.46C43.44 46.46 41.78 48.12 41.78 50.16C41.78 52.21 43.44 53.87 45.49 53.87C47.54 53.87 49.2 52.21 49.2 50.16Z" id="a1Yz0toSYy"></path></defs><g><g><use xlink:href="#e35PpNPWis" opacity="1" fill="#e6e7e8" fill-opacity="1"></use><g><use xlink:href="#e35PpNPWis" opacity="1" fill-opacity="0" stroke="#000000" stroke-width="1" stroke-opacity="0"></use></g></g><g><use xlink:href="#a2G3LEmxG" opacity="1" fill="#414042" fill-opacity="1"></use><g><use xlink:href="#a2G3LEmxG" opacity="1" fill-opacity="0" stroke="#000000" stroke-width="1" stroke-opacity="0"></use></g></g><g><use xlink:href="#aeRFwhYZx" opacity="1" fill="#414042" fill-opacity="1"></use><g><use xlink:href="#aeRFwhYZx" opacity="1" fill-opacity="0" stroke="#000000" stroke-width="1" stroke-opacity="0"></use></g></g><g><use xlink:href="#b1EfQ88Y20" opacity="1" fill="#414042" fill-opacity="1"></use><g><use xlink:href="#b1EfQ88Y20" opacity="1" fill-opacity="0" stroke="#000000" stroke-width="1" stroke-opacity="0"></use></g></g><g><use xlink:href="#c2IyK6hdj" opacity="1" fill="#414042" fill-opacity="1"></use><g><use xlink:href="#c2IyK6hdj" opacity="1" fill-opacity="0" stroke="#000000" stroke-width="1" stroke-opacity="0"></use></g></g><g><use xlink:href="#a140e5qJv4" opacity="1" fill="#414042" fill-opacity="1"></use><g><use xlink:href="#a140e5qJv4" opacity="1" fill-opacity="0" stroke="#000000" stroke-width="1" stroke-opacity="0"></use></g></g><g><use xlink:href="#aeR9LugBW" opacity="1" fill="#414042" fill-opacity="1"></use><g><use xlink:href="#aeR9LugBW" opacity="1" fill-opacity="0" stroke="#000000" stroke-width="1" stroke-opacity="0"></use></g></g><g><use xlink:href="#aXh2ImIgO" opacity="1" fill="#414042" fill-opacity="1"></use><g><use xlink:href="#aXh2ImIgO" opacity="1" fill-opacity="0" stroke="#000000" stroke-width="1" stroke-opacity="0"></use></g></g><g><use xlink:href="#c108Jwzm0X" opacity="1" fill="#414042" fill-opacity="1"></use><g><use xlink:href="#c108Jwzm0X" opacity="1" fill-opacity="0" stroke="#000000" stroke-width="1" stroke-opacity="0"></use></g></g><g><use xlink:href="#h1iLvsoGBJ" opacity="1" fill="#6d6e71" fill-opacity="1"></use><g><use xlink:href="#h1iLvsoGBJ" opacity="1" fill-opacity="0" stroke="#000000" stroke-width="1" stroke-opacity="0"></use></g></g><g><use xlink:href="#a1ptUkimem" opacity="1" fill="#6d6e71" fill-opacity="1"></use><g><use xlink:href="#a1ptUkimem" opacity="1" fill-opacity="0" stroke="#000000" stroke-width="1" stroke-opacity="0"></use></g></g><g><use xlink:href="#d93DQIU1q" opacity="1" fill="#6d6e71" fill-opacity="1"></use><g><use xlink:href="#d93DQIU1q" opacity="1" fill-opacity="0" stroke="#000000" stroke-width="1" stroke-opacity="0"></use></g></g><g><use xlink:href="#c1tW8lpWiE" opacity="1" fill="#6d6e71" fill-opacity="1"></use><g><use xlink:href="#c1tW8lpWiE" opacity="1" fill-opacity="0" stroke="#000000" stroke-width="1" stroke-opacity="0"></use></g></g><g><use xlink:href="#cYfbqSQgk" opacity="1" fill="#72c594" fill-opacity="1"></use><g><use xlink:href="#cYfbqSQgk" opacity="1" fill-opacity="0" stroke="#000000" stroke-width="1" stroke-opacity="0"></use></g></g><g><use xlink:href="#e1sUYUIei7" opacity="1" fill="#000000" fill-opacity="0"></use><g><use xlink:href="#e1sUYUIei7" opacity="1" fill-opacity="0" stroke="#6d6e71" stroke-width="4" stroke-opacity="1"></use></g></g><g><use xlink:href="#a1I9evOfyx" opacity="1" fill="#262526" fill-opacity="1"></use><g><use xlink:href="#a1I9evOfyx" opacity="1" fill-opacity="0" stroke="#000000" stroke-width="1" stroke-opacity="0"></use></g></g><g><use xlink:href="#aODLPley" opacity="1" fill="#262526" fill-opacity="1"></use><g><use xlink:href="#aODLPley" opacity="1" fill-opacity="0" stroke="#000000" stroke-width="1" stroke-opacity="0"></use></g></g><g><use xlink:href="#a6iVOEvCN" opacity="1" fill="#262526" fill-opacity="1"></use><g><use xlink:href="#a6iVOEvCN" opacity="1" fill-opacity="0" stroke="#000000" stroke-width="1" stroke-opacity="0"></use></g></g><g><use xlink:href="#bmUCPxq4W" opacity="1" fill="#262526" fill-opacity="1"></use><g><use xlink:href="#bmUCPxq4W" opacity="1" fill-opacity="0" stroke="#000000" stroke-width="1" stroke-opacity="0"></use></g></g><g><use xlink:href="#a44BdXuppp" opacity="1" fill="#262526" fill-opacity="1"></use><g><use xlink:href="#a44BdXuppp" opacity="1" fill-opacity="0" stroke="#000000" stroke-width="1" stroke-opacity="0"></use></g></g><g><use xlink:href="#berzpFk5S" opacity="1" fill="#262526" fill-opacity="1"></use><g><use xlink:href="#berzpFk5S" opacity="1" fill-opacity="0" stroke="#000000" stroke-width="1" stroke-opacity="0"></use></g></g><g><use xlink:href="#a8Ux7Tx05M" opacity="1" fill="#262526" fill-opacity="1"></use><g><use xlink:href="#a8Ux7Tx05M" opacity="1" fill-opacity="0" stroke="#000000" stroke-width="1" stroke-opacity="0"></use></g></g><g><use xlink:href="#brc68GYEw" opacity="1" fill="#cdac51" fill-opacity="1"></use><g><use xlink:href="#brc68GYEw" opacity="1" fill-opacity="0" stroke="#000000" stroke-width="1" stroke-opacity="0"></use></g></g><g><use xlink:href="#b55C27gLSk" opacity="1" fill="#000000" fill-opacity="0"></use><g><use xlink:href="#b55C27gLSk" opacity="1" fill-opacity="0" stroke="#262526" stroke-width="3" stroke-opacity="1"></use></g></g><g><use xlink:href="#ab8xqVcED" opacity="1" fill="#262526" fill-opacity="1"></use><g><use xlink:href="#ab8xqVcED" opacity="1" fill-opacity="0" stroke="#000000" stroke-width="1" stroke-opacity="0"></use></g></g><g><use xlink:href="#cJxmO4hv" opacity="1" fill="#262526" fill-opacity="1"></use><g><use xlink:href="#cJxmO4hv" opacity="1" fill-opacity="0" stroke="#000000" stroke-width="1" stroke-opacity="0"></use></g></g><g><use xlink:href="#i7E8VcoMd" opacity="1" fill="#262526" fill-opacity="1"></use><g><use xlink:href="#i7E8VcoMd" opacity="1" fill-opacity="0" stroke="#000000" stroke-width="1" stroke-opacity="0"></use></g></g><g><use xlink:href="#ih4Rosj6S" opacity="1" fill="#262526" fill-opacity="1"></use><g><use xlink:href="#ih4Rosj6S" opacity="1" fill-opacity="0" stroke="#000000" stroke-width="1" stroke-opacity="0"></use></g></g><g><use xlink:href="#b10xxR23DR" opacity="1" fill="#262526" fill-opacity="1"></use><g><use xlink:href="#b10xxR23DR" opacity="1" fill-opacity="0" stroke="#000000" stroke-width="1" stroke-opacity="0"></use></g></g><g><use xlink:href="#aB2U8bmsT" opacity="1" fill="#262526" fill-opacity="1"></use><g><use xlink:href="#aB2U8bmsT" opacity="1" fill-opacity="0" stroke="#000000" stroke-width="1" stroke-opacity="0"></use></g></g><g><use xlink:href="#a4m2nmkvkW" opacity="1" fill="#262526" fill-opacity="1"></use><g><use xlink:href="#a4m2nmkvkW" opacity="1" fill-opacity="0" stroke="#000000" stroke-width="1" stroke-opacity="0"></use></g></g><g><use xlink:href="#c20cA4uFi" opacity="1" fill="#ffffff" fill-opacity="1"></use><g><use xlink:href="#c20cA4uFi" opacity="1" fill-opacity="0" stroke="#000000" stroke-width="1" stroke-opacity="0"></use></g></g><g><use xlink:href="#c1yPu6NiYo" opacity="1" fill="#414042" fill-opacity="1"></use><g><use xlink:href="#c1yPu6NiYo" opacity="1" fill-opacity="0" stroke="#000000" stroke-width="1" stroke-opacity="0"></use></g></g><g><use xlink:href="#a2uCN3DdE4" opacity="1" fill="#414042" fill-opacity="1"></use><g><use xlink:href="#a2uCN3DdE4" opacity="1" fill-opacity="0" stroke="#000000" stroke-width="1" stroke-opacity="0"></use></g></g><g><use xlink:href="#mU5x9spFO" opacity="1" fill="#414042" fill-opacity="1"></use><g><use xlink:href="#mU5x9spFO" opacity="1" fill-opacity="0" stroke="#000000" stroke-width="1" stroke-opacity="0"></use></g></g><g><use xlink:href="#a7m9GEIQIt" opacity="1" fill="#414042" fill-opacity="1"></use><g><use xlink:href="#a7m9GEIQIt" opacity="1" fill-opacity="0" stroke="#000000" stroke-width="1" stroke-opacity="0"></use></g></g><g><use xlink:href="#c13LGmO7to" opacity="1" fill="#414042" fill-opacity="1"></use><g><use xlink:href="#c13LGmO7to" opacity="1" fill-opacity="0" stroke="#000000" stroke-width="1" stroke-opacity="0"></use></g></g><g><use xlink:href="#b1kcK5G3cf" opacity="1" fill="#414042" fill-opacity="1"></use><g><use xlink:href="#b1kcK5G3cf" opacity="1" fill-opacity="0" stroke="#000000" stroke-width="1" stroke-opacity="0"></use></g></g><g><use xlink:href="#c1hZKDFzYS" opacity="1" fill="#414042" fill-opacity="1"></use><g><use xlink:href="#c1hZKDFzYS" opacity="1" fill-opacity="0" stroke="#000000" stroke-width="1" stroke-opacity="0"></use></g></g><g><use xlink:href="#b3MUlOtzZO" opacity="1" fill="#414042" fill-opacity="1"></use><g><use xlink:href="#b3MUlOtzZO" opacity="1" fill-opacity="0" stroke="#000000" stroke-width="1" stroke-opacity="0"></use></g></g><g><use xlink:href="#a9N5NDkR6" opacity="1" fill="#6d6e71" fill-opacity="1"></use><g><use xlink:href="#a9N5NDkR6" opacity="1" fill-opacity="0" stroke="#000000" stroke-width="1" stroke-opacity="0"></use></g></g><g><use xlink:href="#f84haZQc" opacity="1" fill="#6d6e71" fill-opacity="1"></use><g><use xlink:href="#f84haZQc" opacity="1" fill-opacity="0" stroke="#000000" stroke-width="1" stroke-opacity="0"></use></g></g><g><use xlink:href="#bjnw4Hcdf" opacity="1" fill="#6d6e71" fill-opacity="1"></use><g><use xlink:href="#bjnw4Hcdf" opacity="1" fill-opacity="0" stroke="#000000" stroke-width="1" stroke-opacity="0"></use></g></g><g><use xlink:href="#e2BWK8mvZv" opacity="1" fill="#6d6e71" fill-opacity="1"></use><g><use xlink:href="#e2BWK8mvZv" opacity="1" fill-opacity="0" stroke="#000000" stroke-width="1" stroke-opacity="0"></use></g></g><g><use xlink:href="#l4BeBCVRR4" opacity="1" fill="#72c594" fill-opacity="1"></use><g><use xlink:href="#l4BeBCVRR4" opacity="1" fill-opacity="0" stroke="#000000" stroke-width="1" stroke-opacity="0"></use></g></g><g><use xlink:href="#a6cDcpsi9" opacity="1" fill="#000000" fill-opacity="0"></use><g><use xlink:href="#a6cDcpsi9" opacity="1" fill-opacity="0" stroke="#6d6e71" stroke-width="4" stroke-opacity="1"></use></g></g><g><use xlink:href="#b54gLLhb3" opacity="1" fill="#262526" fill-opacity="1"></use><g><use xlink:href="#b54gLLhb3" opacity="1" fill-opacity="0" stroke="#000000" stroke-width="1" stroke-opacity="0"></use></g></g><g><use xlink:href="#aTJBFlf7Q" opacity="1" fill="#262526" fill-opacity="1"></use><g><use xlink:href="#aTJBFlf7Q" opacity="1" fill-opacity="0" stroke="#000000" stroke-width="1" stroke-opacity="0"></use></g></g><g><use xlink:href="#b7MjP2u2c" opacity="1" fill="#262526" fill-opacity="1"></use><g><use xlink:href="#b7MjP2u2c" opacity="1" fill-opacity="0" stroke="#000000" stroke-width="1" stroke-opacity="0"></use></g></g><g><use xlink:href="#a16Cgn7roY" opacity="1" fill="#262526" fill-opacity="1"></use><g><use xlink:href="#a16Cgn7roY" opacity="1" fill-opacity="0" stroke="#000000" stroke-width="1" stroke-opacity="0"></use></g></g><g><use xlink:href="#aunQ2AvFj" opacity="1" fill="#262526" fill-opacity="1"></use><g><use xlink:href="#aunQ2AvFj" opacity="1" fill-opacity="0" stroke="#000000" stroke-width="1" stroke-opacity="0"></use></g></g><g><use xlink:href="#aQMq6vOGl" opacity="1" fill="#262526" fill-opacity="1"></use><g><use xlink:href="#aQMq6vOGl" opacity="1" fill-opacity="0" stroke="#000000" stroke-width="1" stroke-opacity="0"></use></g></g><g><use xlink:href="#ciV5DrtIu" opacity="1" fill="#262526" fill-opacity="1"></use><g><use xlink:href="#ciV5DrtIu" opacity="1" fill-opacity="0" stroke="#000000" stroke-width="1" stroke-opacity="0"></use></g></g><g><use xlink:href="#d2vtiac4n" opacity="1" fill="#cdac51" fill-opacity="1"></use><g><use xlink:href="#d2vtiac4n" opacity="1" fill-opacity="0" stroke="#000000" stroke-width="1" stroke-opacity="0"></use></g></g><g><use xlink:href="#blyKGrg21" opacity="1" fill="#000000" fill-opacity="0"></use><g><use xlink:href="#blyKGrg21" opacity="1" fill-opacity="0" stroke="#262526" stroke-width="3" stroke-opacity="1"></use></g></g><g><use xlink:href="#g4pMv8LnM" opacity="1" fill="#262526" fill-opacity="1"></use><g><use xlink:href="#g4pMv8LnM" opacity="1" fill-opacity="0" stroke="#000000" stroke-width="1" stroke-opacity="0"></use></g></g><g><use xlink:href="#a1EeYgpJUF" opacity="1" fill="#262526" fill-opacity="1"></use><g><use xlink:href="#a1EeYgpJUF" opacity="1" fill-opacity="0" stroke="#000000" stroke-width="1" stroke-opacity="0"></use></g></g><g><use xlink:href="#b4mEKy99R7" opacity="1" fill="#262526" fill-opacity="1"></use><g><use xlink:href="#b4mEKy99R7" opacity="1" fill-opacity="0" stroke="#000000" stroke-width="1" stroke-opacity="0"></use></g></g><g><use xlink:href="#c1RSuvGgz" opacity="1" fill="#262526" fill-opacity="1"></use><g><use xlink:href="#c1RSuvGgz" opacity="1" fill-opacity="0" stroke="#000000" stroke-width="1" stroke-opacity="0"></use></g></g><g><use xlink:href="#c399nl7MvJ" opacity="1" fill="#262526" fill-opacity="1"></use><g><use xlink:href="#c399nl7MvJ" opacity="1" fill-opacity="0" stroke="#000000" stroke-width="1" stroke-opacity="0"></use></g></g><g><use xlink:href="#a4qD4Cgf8" opacity="1" fill="#262526" fill-opacity="1"></use><g><use xlink:href="#a4qD4Cgf8" opacity="1" fill-opacity="0" stroke="#000000" stroke-width="1" stroke-opacity="0"></use></g></g><g><use xlink:href="#a1Yz0toSYy" opacity="1" fill="#262526" fill-opacity="1"></use><g><use xlink:href="#a1Yz0toSYy" opacity="1" fill-opacity="0" stroke="#000000" stroke-width="1" stroke-opacity="0"></use></g></g></g></svg>